<svg xmlns="http://www.w3.org/2000/svg" viewBox="0 0 96 96">
  <defs>
    <clipPath id="fb-clip"><rect x="6" y="10" width="84" height="76" rx="16"></rect></clipPath>
  </defs>
  <rect x="6" y="10" width="84" height="76" rx="16" fill="#42b883"></rect>
  <g clip-path="url(#fb-clip)">
    <polygon points="60,30 90,30 90,86 36,86" fill="#ffffff"></polygon>
    <path d="M21 39.5 C17.8 39.5 16.6 41.1 16.6 44.4 L16.6 48.7 C16.6 51.2 15.3 52.2 13.2 52.2 C15.3 52.2 16.6 53.2 16.6 55.7 L16.6 60 C16.6 63.3 17.8 64.9 21 64.9" fill="none" stroke="#ffffff" stroke-width="3.4" stroke-linecap="round"></path>
    <rect x="24" y="43.5" width="9.5" height="4" rx="2" fill="#ffffff"></rect>
    <rect x="24" y="50.2" width="6.5" height="4" rx="2" fill="#8fd8b6"></rect>
    <rect x="24" y="56.9" width="8" height="4" rx="2" fill="#ffffff"></rect>
    <path d="M37 39.5 C40.2 39.5 41.4 41.1 41.4 44.4 L41.4 48.7 C41.4 51.2 42.7 52.2 44.8 52.2 C42.7 52.2 41.4 53.2 41.4 55.7 L41.4 60 C41.4 63.3 40.2 64.9 37 64.9" fill="none" stroke="#ffffff" stroke-width="3.4" stroke-linecap="round"></path>
    <rect x="63" y="36" width="21" height="11" rx="3.5" fill="none" stroke="#42b883" stroke-width="2.5"></rect>
    <rect x="57" y="53" width="11" height="11" rx="3.5" fill="#42b883"></rect>
    <path d="M60 58.6 l2.1 2.1 3.4 -4" fill="none" stroke="#ffffff" stroke-width="2" stroke-linecap="round" stroke-linejoin="round"></path>
    <rect x="72.5" y="56" width="11.5" height="5" rx="2.5" fill="#a8dfc4"></rect>
    <rect x="54" y="71" width="30" height="11" rx="5.5" fill="#42b883"></rect>
    <rect x="62" y="75.2" width="14" height="2.6" rx="1.3" fill="#ffffff"></rect>
  </g>
  <circle cx="20" cy="20" r="3.2" fill="#ffffff"></circle>
  <circle cx="31" cy="20" r="3.2" fill="#c9efdd"></circle>
  <circle cx="42" cy="20" r="3.2" fill="#8fd8b6"></circle>
</svg>